#!OML:ASF I:\golf\golf\golf 2\Subject 1\2002-09-07\Subject1.ASF
:FULLY-SPECIFIED
:DEGREES
326
root -1.60071 17.9474 -2.64917 52.4755 27.262 14.2634
lowerback 32.439 4.04396 6.11672
upperback 14.6308 7.76341 11.9536
thorax -1.63692 3.70172 6.94223
lowerneck -15.7028 -11.1159 -5.01081
upperneck -6.38344 -14.2515 3.91322
head 1.21081 -7.12878 1.18879
rclavicle -6.67916e-014 -5.32743e-014
rhumerus 22.9042 -10.4888 -51.7699
rradius 14.0771
rwrist 6.1291
rhand -21.028 -0.6025
rfingers 7.12502
rthumb 5.34735 -30.515
lclavicle -6.67916e-014 -5.32743e-014
lhumerus -25.8836 -55.9306 103.51
lradius 57.1019
lwrist -3.82758
lhand -40.6938 11.7832
lfingers 7.12502
lthumb -13.6365 41.3165
rfemur -68.7392 -7.01356 13.9373
rtibia 28.8946
rfoot -1.91579 -13.4275
rtoes 22.6799
lfemur -36.0631 0.727386 -10.9547
ltibia 31.5322
lfoot -0.222113 -2.38569
ltoes -16.2627
327
root -1.58758 17.9503 -2.66554 51.6571 27.3247 13.9916
lowerback 32.2722 4.11835 6.03038
upperback 14.5382 7.82171 11.9185
thorax -1.6869 3.73153 6.93335
lowerneck -15.7638 -11.1483 -5.10213
upperneck -6.28698 -14.2678 4.14933
head 1.28302 -7.12627 1.26704
rclavicle -9.85972e-014 -2.38542e-015
rhumerus 21.1526 -10.8267 -52.157
rradius 14.1648
rwrist 4.45817
rhand -21.3281 -1.21685
rfingers 7.12502
rthumb 5.05753 -31.1365
lclavicle -9.85972e-014 -2.38542e-015
lhumerus -25.9729 -56.0282 103.603
lradius 57.0781
lwrist -3.12524
lhand -40.1927 12.0435
lfingers 7.12502
lthumb -13.1535 41.6086
rfemur -68.1349 -6.88216 14.0998
rtibia 29.1281
rfoot -2.15683 -13.402
rtoes 22.6646
lfemur -36.0487 1.05886 -11.1888
ltibia 31.3048
lfoot -1.04121 -2.35693
ltoes -16.6663
328
root -1.56941 17.9539 -2.68445 50.7998 27.4668 13.6879
lowerback 32.113 4.11135 6.05729
upperback 14.4345 7.81241 11.8552
thorax -1.72347 3.73391 6.85779
lowerneck -15.9261 -11.1463 -5.11252
upperneck -6.07997 -14.2468 4.37625
head 1.40136 -7.10411 1.32408
rclavicle 4.77083e-014 5.4467e-014
rhumerus 19.4016 -11.1544 -52.688
rradius 14.2482
rwrist 3.04654
rhand -21.7604 -1.41557
rfingers 7.12502
rthumb 4.64011 -31.3448
lclavicle 4.77083e-014 5.4467e-014
lhumerus -26.0013 -56.0701 103.618
lradius 56.9558
lwrist -2.43751
lhand -39.6265 12.0969
lfingers 7.12502
lthumb -12.6077 41.6964
rfemur -67.5032 -6.87117 14.438
rtibia 29.3417
rfoot -2.35431 -13.2304
rtoes 22.5433
lfemur -36.0191 1.33122 -11.3496
ltibia 31.0536
lfoot -1.93293 -2.27422
ltoes -17.0999
329
root -1.54778 17.9591 -2.70312 49.9129 27.6288 13.4227
lowerback 31.9858 4.04873 6.08863
upperback 14.3326 7.73796 11.7521
thorax -1.75682 3.70658 6.75703
lowerneck -16.2156 -11.0828 -4.79594
upperneck -5.78258 -14.1957 4.38117
head 1.52455 -7.07508 1.25512
rclavicle 0 -8.34896e-015
rhumerus 17.646 -11.2246 -53.1694
rradius 14.3286
rwrist 1.78665
rhand -21.6204 -1.40654
rfingers 7.12502
rthumb 4.77527 -31.3327
lclavicle 0 -8.34896e-015
lhumerus -26.0015 -55.9708 103.563
lradius 56.7591
lwrist -1.95527
lhand -39.2471 12.173
lfingers 7.12502
lthumb -12.2419 41.7948
rfemur -66.8231 -7.00431 14.8608
rtibia 29.5501
rfoot -2.54402 -12.9023
rtoes 22.6178
lfemur -35.9552 1.48355 -11.5195
ltibia 30.8195
lfoot -2.91561 -2.16304
ltoes -16.5404
330
root -1.53083 17.9631 -2.71793 49.064 27.6998 13.1443
lowerback 31.8713 4.08671 5.95843
upperback 14.2118 7.74788 11.684
thorax -1.85323 3.71154 6.74659
lowerneck -16.5772 -11.0323 -4.37746
upperneck -5.58028 -14.1789 4.15664
head 1.59996 -7.07086 1.09655
rclavicle 6.67916e-014 4.05521e-014
rhumerus 15.6703 -10.3727 -53.131
rradius 14.6418
rwrist -0.0198968
rhand -21.0412 -1.57492
rfingers 7.12502
rthumb 5.33456 -31.4878
lclavicle 6.67916e-014 4.05521e-014
lhumerus -26.1322 -55.9478 103.646
lradius 56.5344
lwrist -1.75608
lhand -39.2448 12.2883
lfingers 7.12502
lthumb -12.2397 41.9102
rfemur -66.1727 -6.9997 15.1466
rtibia 29.7413
rfoot -2.69484 -12.6721
rtoes 22.4238
lfemur -35.925 1.55394 -11.6615
ltibia 30.634
lfoot -3.96059 -1.94373
ltoes -17.1663
331
root -1.51147 17.9657 -2.73362 48.3056 27.8861 12.8599
lowerback 31.7013 4.07885 5.98005
upperback 14.0393 7.74506 11.6415
thorax -1.965 3.7148 6.68942
lowerneck -17.0044 -10.9674 -4.01561
upperneck -5.40438 -14.1306 3.81026
head 1.67059 -7.05238 0.909449
rclavicle -4.77083e-014 4.17448e-015
rhumerus 13.5143 -8.8285 -52.8348
rradius 15.1763
rwrist -2.16318
rhand -20.5841 -1.64603
rfingers 7.12502
rthumb 5.77593 -31.5473
lclavicle -4.77083e-014 4.17448e-015
lhumerus -26.3186 -56.0123 103.808
lradius 56.3288
lwrist -1.62378
lhand -39.1657 12.3541
lfingers 7.12502
lthumb -12.1634 41.9804
rfemur -65.5889 -6.97692 15.4128
rtibia 29.9279
rfoot -2.84643 -12.607
rtoes 21.8794
lfemur -36.0494 1.48892 -11.6886
ltibia 30.4835
lfoot -4.94109 -1.5597
ltoes -16.4864
332
root -1.48584 17.9645 -2.75454 47.7402 28.2675 12.5624
lowerback 31.2802 3.96557 6.25401
upperback 13.8102 7.66013 11.5961
thorax -1.99504 3.69001 6.53773
lowerneck -17.3683 -10.9083 -3.76028
upperneck -5.19071 -14.0757 3.61182
head 1.76623 -7.0251 0.786582
rclavicle 1.59028e-014 7.99114e-014
rhumerus 11.3444 -7.38724 -52.6934
rradius 15.7056
rwrist -3.80457
rhand -20.0993 -1.54451
rfingers 7.12502
rthumb 6.24392 -31.4325
lclavicle 1.59028e-014 7.99114e-014
lhumerus -26.5137 -55.9565 103.967
lradius 56.1976
lwrist -1.62592
lhand -38.6347 12.7352
lfingers 7.12502
lthumb -11.6514 42.3912
rfemur -65.2079 -7.03177 15.7467
rtibia 30.1298
rfoot -3.00077 -12.6657
rtoes 21.6081
lfemur -36.4724 1.37565 -11.613
ltibia 30.3486
lfoot -5.74556 -1.20468
ltoes -16.7593
333
root -1.46359 17.963 -2.77257 47.1225 28.4962 12.2688
lowerback 30.9868 3.92991 6.32222
upperback 13.5927 7.62608 11.5511
thorax -2.09614 3.67999 6.46851
lowerneck -17.6913 -10.9282 -3.65625
upperneck -5.0778 -14.1031 3.62787
head 1.85412 -7.03292 0.751509
rclavicle -9.54166e-015 -4.02042e-014
rhumerus 9.22248 -5.79117 -52.5517
rradius 16.2572
rwrist -5.31687
rhand -19.3397 -1.28497
rfingers 7.12502
rthumb 6.97728 -31.15
lclavicle -9.54166e-015 -4.02042e-014
lhumerus -26.6238 -55.8269 104.08
lradius 56.0528
lwrist -1.58312
lhand -38.1533 13.1104
lfingers 7.12502
lthumb -11.1871 42.7922
rfemur -64.7523 -6.86633 15.8211
rtibia 30.3416
rfoot -3.26361 -12.8929
rtoes 21.652
lfemur -36.7967 1.42496 -11.6709
ltibia 30.2234
lfoot -6.54496 -1.01091
ltoes -18.3245
334
root -1.44259 17.9641 -2.78347 46.2987 28.5371 12.0411
lowerback 30.8878 3.89389 6.18982
upperback 13.4885 7.54082 11.4256
thorax -2.16212 3.64078 6.42955
lowerneck -18.1888 -10.9443 -3.61976
upperneck -4.93366 -14.1081 3.82373
head 2.00401 -7.01999 0.773184
rclavicle -6.04305e-014 -2.7482e-014
rhumerus 7.25258 -3.62012 -52.4037
rradius 16.8975
rwrist -7.19681
rhand -18.601 -0.720115
rfingers 7.12502
rthumb 7.69024 -30.5603
lclavicle -6.04305e-014 -2.7482e-014
lhumerus -26.4868 -55.6969 103.916
lradius 55.7427
lwrist -1.21421
lhand -38.2547 12.9738
lfingers 7.12502
lthumb -11.2849 42.6502
rfemur -64.0215 -6.60106 15.6965
rtibia 30.547
rfoot -3.54332 -13.1121
rtoes 21.6816
lfemur -36.7974 1.60094 -11.9491
ltibia 30.1204
lfoot -7.46035 -0.934806
ltoes -20.7583
335
root -1.41526 17.967 -2.79617 45.5572 28.6149 11.9129
lowerback 30.4717 4.02965 6.35137
upperback 12.8105 7.75349 10.6943
thorax -2.83372 3.76939 5.8333
lowerneck -16.2897 -10.9898 -2.37727
upperneck -5.32554 -14.4496 4.06236
head 1.47863 -7.22594 0.751038
rclavicle 3.18055e-015 3.02153e-014
rhumerus 3.50233 -3.99762 -53.5984
rradius 17.1988
rwrist -6.561
rhand -17.9971 0.199548
rfingers 7.12502
rthumb 8.27311 -29.6185
lclavicle 3.18055e-015 3.02153e-014
lhumerus -29.2456 -56.5885 105.36
lradius 55.6636
lwrist -0.736663
lhand -38.173 12.8248
lfingers 7.12502
lthumb -11.2061 42.5055
rfemur -63.3417 -6.54968 15.6378
rtibia 30.7545
rfoot -3.7052 -13.1735
rtoes 21.6201
lfemur -36.8336 1.54968 -12.2364
ltibia 30.0271
lfoot -8.33207 -0.822642
ltoes -22.6829
